<svg width="25" height="25" viewBox="0 0 25 25" fill="none" xmlns="http://www.w3.org/2000/svg">
<g clip-path="url(#clip0_85_43)">
<path d="M5.85746 4.30469H4.29453V5.07241H5.85746V4.30469Z" fill="white" stroke="white" stroke-width="0.5"/>
<path d="M20.7053 4.30469H19.1424V5.07241H20.7053V4.30469Z" fill="white" stroke="white" stroke-width="0.5"/>
<path d="M20.3082 1.19604V0H19.5404V1.19604H5.46031V0H4.69258V1.19604H0.0038147V7.41704H1.56675V25H23.434V7.41704H24.997V1.19604H20.3082ZM22.6663 24.2323H2.33438V8.97993H22.6663V24.2323H22.6663ZM22.6663 8.21226H2.33438V7.41709H22.6663V8.21226H22.6663ZM0.77149 6.64937V1.96372H4.69258V3.15981H5.46031V1.96372H19.5404V3.15981H20.3082V1.96372H24.2293V6.64932H0.77149V6.64937Z" fill="white" stroke="white" stroke-width="0.5"/>
<path d="M12.8907 22.2793H12.1092V23.047H12.8907V22.2793Z" fill="white" stroke="white" stroke-width="0.5"/>
<path d="M11.3277 22.2793H10.5462V23.047H11.3277V22.2793Z" fill="white" stroke="white" stroke-width="0.5"/>
<path d="M14.4538 22.2793H13.6723V23.047H14.4538V22.2793Z" fill="white" stroke="white" stroke-width="0.5"/>
<path d="M17.0695 12.7753L16.5266 12.2324L11.7184 17.0405L10.427 15.749L9.88417 16.2919L11.7184 18.1262L17.0695 12.7753Z" fill="white" stroke="white" stroke-width="0.5"/>
</g>
<defs>
<clipPath id="clip0_85_43">
<rect width="25" height="25" fill="white"/>
</clipPath>
</defs>
</svg>
