<svg width="25" height="25" viewBox="0 0 25 25" fill="none" xmlns="http://www.w3.org/2000/svg">
<g clip-path="url(#clip0_85_9)">
<path d="M21.339 3.65979C18.9785 1.29974 15.8391 0 12.4992 0C9.16021 0 6.02135 1.29974 3.66094 3.65979C1.30016 6.02026 0 9.15974 0 12.5C0 15.839 1.30016 18.9781 3.66094 21.339C6.02167 23.6998 9.16052 25 12.4992 25C15.8387 25 18.9781 23.6998 21.339 21.339C23.6998 18.9782 25 15.8391 25 12.5C25 9.15958 23.6998 6.0201 21.339 3.65979ZM12.4992 23.9583C6.18151 23.9583 1.04167 18.8182 1.04167 12.5C1.04167 6.18182 6.18151 1.04167 12.4992 1.04167C18.8178 1.04167 23.9583 6.18182 23.9583 12.5C23.9583 18.8182 18.8178 23.9583 12.4992 23.9583Z" fill="white"/>
<path d="M3.4489 10.4486C3.49692 10.4624 3.54536 10.469 3.59296 10.469C3.81932 10.469 4.0277 10.3203 4.09328 10.0918L4.10708 10.0442C4.18791 9.76814 4.02958 9.47882 3.75354 9.39804C3.47739 9.31731 3.18817 9.47548 3.10739 9.75163L3.09213 9.80429C3.0127 10.0807 3.17244 10.3692 3.4489 10.4486Z" fill="white"/>
<path d="M3.24589 12.5711C3.52193 12.5711 3.75219 12.3542 3.76568 12.0755L3.76818 12.0266C3.78381 11.7394 3.56365 11.4939 3.27641 11.4783C2.98917 11.4631 2.74365 11.6829 2.72803 11.9701L2.72521 12.0252C2.71131 12.3124 2.93297 12.5567 3.22027 12.5705C3.22886 12.5709 3.2374 12.5711 3.24589 12.5711Z" fill="white"/>
<path d="M3.95776 14.3997L3.96026 14.3508C3.97589 14.0636 3.75573 13.8181 3.46849 13.8025C3.18125 13.7873 2.93573 14.0071 2.9201 14.2943L2.91729 14.3494C2.90339 14.6367 3.125 14.8809 3.41234 14.8948C3.42094 14.8952 3.42948 14.8954 3.43797 14.8954C3.71401 14.8954 3.94427 14.6785 3.95776 14.3997Z" fill="white"/>
<path d="M4.69548 16.4474C4.56579 16.1905 4.25251 16.0875 3.99579 16.2171C3.73902 16.3468 3.63594 16.6601 3.76563 16.9168L3.79048 16.9657C3.88261 17.1458 4.06522 17.2494 4.25459 17.2494C4.33438 17.2494 4.41542 17.2311 4.49136 17.1922C4.74746 17.0612 4.84886 16.7474 4.71787 16.4913L4.69548 16.4474Z" fill="white"/>
<path d="M5.80302 18.1241C5.61792 17.904 5.28938 17.8756 5.06917 18.0607C4.84901 18.2458 4.82068 18.5744 5.00578 18.7945L5.04141 18.8366C5.14443 18.9576 5.29089 19.0198 5.43823 19.0198C5.55761 19.0198 5.67761 18.9791 5.77563 18.8956C5.99464 18.7091 6.02104 18.3804 5.83458 18.1614L5.80302 18.1241Z" fill="white"/>
<path d="M4.69522 7.48299C4.44506 7.34096 4.12714 7.42883 3.98522 7.67898L3.95798 7.72737C3.81766 7.97846 3.90751 8.2958 4.15865 8.43607C4.23907 8.48101 4.32621 8.50232 4.41219 8.50232C4.59475 8.50232 4.77199 8.40612 4.86735 8.23544L4.89126 8.19299C5.03313 7.94278 4.94542 7.62487 4.69522 7.48299Z" fill="white"/>
<path d="M5.31037 5.86258L5.27334 5.90289C5.07964 6.11555 5.09506 6.44498 5.30772 6.63868C5.40756 6.72956 5.53308 6.7744 5.65824 6.7744C5.79969 6.7744 5.94068 6.71706 6.04344 6.60425L6.07673 6.56789C6.27152 6.35628 6.25787 6.02675 6.0462 5.83196C5.83459 5.63711 5.50511 5.65081 5.31037 5.86258Z" fill="white"/>
<path d="M19.9442 7.90835C20.0426 8.06809 20.2133 8.15611 20.3881 8.15611C20.4813 8.15611 20.5756 8.13116 20.6608 8.07871C20.9057 7.92788 20.982 7.60699 20.8311 7.3621L20.802 7.31517C20.6495 7.07121 20.3281 6.99715 20.0843 7.14949C19.8403 7.30199 19.7662 7.6233 19.9186 7.8672L19.9442 7.90835Z" fill="white"/>
<path d="M7.26489 5.37567C7.36625 5.37567 7.46869 5.34614 7.55864 5.28458L7.59974 5.25656C7.83776 5.095 7.89979 4.77114 7.73828 4.53312C7.57671 4.2951 7.25286 4.23312 7.01484 4.39453L6.9702 4.425C6.73281 4.58744 6.67213 4.91161 6.83458 5.14895C6.93557 5.2964 7.0988 5.37567 7.26489 5.37567Z" fill="white"/>
<path d="M21.6691 11.0806C21.3828 11.1088 21.1736 11.3637 21.2018 11.65L21.2066 11.6996C21.232 11.9694 21.4589 12.1717 21.7245 12.1717C21.7408 12.1717 21.7573 12.1709 21.7739 12.1694C22.0603 12.1424 22.2706 11.8884 22.2437 11.602L22.2384 11.5479C22.2102 11.2616 21.9549 11.053 21.6691 11.0806Z" fill="white"/>
<path d="M20.7785 9.68324L20.7942 9.72985C20.8669 9.94819 21.0701 10.0864 21.2883 10.0864C21.3428 10.0864 21.3982 10.0777 21.4528 10.0595C21.7257 9.96871 21.8734 9.67381 21.7825 9.4009L21.7651 9.34881C21.6728 9.07636 21.377 8.93058 21.1046 9.02277C20.8322 9.11511 20.6862 9.41079 20.7785 9.68324Z" fill="white"/>
<path d="M9.1488 4.38291C9.21125 4.38291 9.27484 4.37155 9.33656 4.34765L9.38177 4.33036C9.65078 4.22848 9.78625 3.9278 9.68442 3.65879C9.58255 3.38978 9.28187 3.25426 9.01292 3.35619L8.96083 3.37608C8.69255 3.47989 8.55922 3.78145 8.66297 4.04978C8.74281 4.2564 8.93989 4.38291 9.1488 4.38291Z" fill="white"/>
<path d="M13.2933 3.79061L13.3423 3.79525C13.3594 3.79686 13.3763 3.7977 13.3931 3.7977C13.6581 3.7977 13.8848 3.59619 13.9109 3.32692C13.9385 3.04061 13.7289 2.78603 13.4426 2.75837L13.3874 2.75322C13.1013 2.72671 12.8477 2.93837 12.8216 3.22483C12.7956 3.51129 13.0068 3.76463 13.2933 3.79061Z" fill="white"/>
<path d="M11.2098 3.84683C11.2341 3.84683 11.2588 3.84516 11.2836 3.84162L11.3308 3.83505C11.616 3.79709 11.8164 3.53521 11.7784 3.25005C11.7404 2.96485 11.4782 2.76438 11.1934 2.8025L11.1374 2.81016C10.8526 2.85052 10.6545 3.11417 10.6948 3.39901C10.7317 3.65912 10.9545 3.84683 11.2098 3.84683Z" fill="white"/>
<path d="M19.3976 5.55819C19.1934 5.35569 18.8636 5.3571 18.661 5.56127C18.4585 5.76554 18.4599 6.09528 18.6641 6.29788L18.699 6.33267C18.8008 6.43465 18.9342 6.48564 19.0677 6.48564C19.2008 6.48564 19.334 6.43491 19.4356 6.33346C19.6392 6.13028 19.6395 5.80054 19.4364 5.59689L19.3976 5.55819Z" fill="white"/>
<path d="M20.4675 17.2542C20.2291 17.0933 19.9054 17.1561 19.7444 17.3945L19.7172 17.4345C19.5546 17.6718 19.6152 17.996 19.8526 18.1586C19.9426 18.2202 20.045 18.2497 20.1465 18.2497C20.3125 18.2497 20.4757 18.1705 20.5766 18.0232L20.6079 17.9772C20.7687 17.7389 20.7059 17.4151 20.4675 17.2542Z" fill="white"/>
<path d="M18.4364 18.9206L18.3998 18.9543C18.1877 19.1486 18.1733 19.4781 18.3677 19.6901C18.4704 19.8022 18.6108 19.8591 18.7518 19.8591C18.8775 19.8591 19.0035 19.8139 19.1035 19.7223L19.1434 19.6856C19.3546 19.4904 19.3677 19.1609 19.1724 18.9496C18.9772 18.7383 18.6477 18.7253 18.4364 18.9206Z" fill="white"/>
<path d="M17.6754 4.1957L17.6297 4.16736C17.3848 4.01642 17.064 4.09262 16.9131 4.33757C16.7622 4.58247 16.8384 4.9033 17.0832 5.05424L17.1261 5.08075C17.2116 5.13387 17.3065 5.15913 17.4003 5.15913C17.5744 5.15913 17.7446 5.07179 17.8433 4.91288C17.9949 4.66846 17.9198 4.34736 17.6754 4.1957Z" fill="white"/>
<path d="M7.30511 19.5335L7.265 19.5038C7.03443 19.3318 6.70808 19.3793 6.5361 19.6099C6.36412 19.8405 6.41162 20.1668 6.64219 20.3387L6.68573 20.371C6.77886 20.4399 6.8874 20.4732 6.995 20.4732C7.15453 20.4732 7.31203 20.4001 7.41417 20.262C7.58526 20.0307 7.53641 19.7045 7.30511 19.5335Z" fill="white"/>
<path d="M21.753 13.2136C21.4679 13.1756 21.2058 13.3756 21.1677 13.6608L21.1611 13.7092C21.121 13.994 21.3195 14.2574 21.6043 14.2974C21.6289 14.3008 21.6533 14.3026 21.6775 14.3026C21.933 14.3026 22.156 14.1144 22.1926 13.8542L22.2001 13.799C22.2383 13.5139 22.0381 13.2518 21.753 13.2136Z" fill="white"/>
<path d="M21.345 15.309C21.0763 15.206 20.7752 15.3407 20.6724 15.6095L20.6542 15.6568C20.5507 15.9252 20.6844 16.2266 20.9528 16.3301C21.0144 16.3539 21.0777 16.3652 21.14 16.3652C21.3491 16.3652 21.5464 16.2383 21.6261 16.0316L21.6453 15.9816C21.7481 15.7129 21.6136 15.4117 21.345 15.309Z" fill="white"/>
<path d="M16.8154 20.1076L16.7715 20.1324C16.5206 20.2732 16.4315 20.5907 16.5722 20.8415C16.6678 21.0117 16.8446 21.1075 17.0269 21.1075C17.1132 21.1075 17.2007 21.0859 17.2814 21.0407L17.3282 21.0143C17.5785 20.8726 17.6667 20.5549 17.5251 20.3045C17.3835 20.0542 17.0657 19.966 16.8154 20.1076Z" fill="white"/>
<path d="M12.9815 21.2323L12.931 21.235C12.6437 21.2501 12.4232 21.4953 12.4384 21.7826C12.453 22.0605 12.683 22.276 12.958 22.276C12.9673 22.276 12.9766 22.2757 12.9859 22.2752L13.0395 22.2723C13.3267 22.2563 13.5465 22.0106 13.5305 21.7233C13.5145 21.4361 13.2682 21.2162 12.9815 21.2323Z" fill="white"/>
<path d="M10.9751 21.1131L10.9254 21.1041C10.6423 21.0528 10.3713 21.2407 10.32 21.5238C10.2687 21.8068 10.4566 22.0778 10.7396 22.1291L10.7928 22.1387C10.8236 22.1442 10.8543 22.1469 10.8845 22.1469C11.1322 22.1469 11.3519 21.9695 11.3967 21.7171C11.4471 21.4338 11.2583 21.1635 10.9751 21.1131Z" fill="white"/>
<path d="M15.6444 3.23242L15.5906 3.21425C15.3178 3.12352 15.0228 3.27107 14.932 3.54394C14.8411 3.81685 14.9887 4.11175 15.2617 4.20263L15.3068 4.21784C15.3628 4.23701 15.4197 4.24612 15.4757 4.24612C15.6921 4.24612 15.8943 4.11013 15.9683 3.89393C16.0616 3.62185 15.9166 3.32565 15.6444 3.23242Z" fill="white"/>
<path d="M9.04854 20.5349L9.0051 20.516C8.74193 20.4001 8.43448 20.5193 8.31844 20.7825C8.20234 21.0457 8.32167 21.3531 8.58489 21.4692C8.60224 21.4768 8.61969 21.4844 8.63713 21.4919C8.70422 21.5208 8.77396 21.5344 8.8426 21.5344C9.04448 21.5344 9.23656 21.4163 9.32135 21.2191C9.43489 20.9549 9.31281 20.6485 9.04854 20.5349Z" fill="white"/>
<path d="M14.9636 20.8912L14.918 20.9044C14.6412 20.9829 14.4805 21.2708 14.559 21.5475C14.624 21.7768 14.8327 21.9265 15.0598 21.9265C15.1068 21.9265 15.1546 21.92 15.2021 21.9066L15.2566 21.8908C15.5326 21.8099 15.6908 21.5206 15.6099 21.2445C15.529 20.9685 15.2397 20.8105 14.9636 20.8912Z" fill="white"/>
<path d="M13.4107 11.5927V5.48177C13.4107 5.19417 13.1776 4.96094 12.8899 4.96094C12.6022 4.96094 12.3691 5.19417 12.3691 5.48177V11.5993C11.8984 11.7917 11.5545 12.2328 11.5016 12.7587H7.04157C6.75391 12.7587 6.52074 12.992 6.52074 13.2796C6.52074 13.5672 6.75391 13.8004 7.04157 13.8004H11.8245C12.0821 14.1053 12.4676 14.2995 12.8979 14.2995C13.6726 14.2995 14.3028 13.6719 14.3028 12.9005C14.3028 12.3067 13.9325 11.7981 13.4107 11.5927Z" fill="white"/>
</g>
<defs>
<clipPath id="clip0_85_9">
<rect width="25" height="25" fill="white"/>
</clipPath>
</defs>
</svg>
