<svg width="65" height="65" viewBox="0 0 65 65" fill="none" xmlns="http://www.w3.org/2000/svg">
<rect width="65" height="65" rx="8" fill="#01A9F1"/>
<path d="M33.1403 13.2491C33.2302 13.0573 33.503 13.0573 33.593 13.2491L37.1064 20.7414C37.3637 21.2899 37.8863 21.6664 38.4881 21.7366L46.7897 22.7047C47.0028 22.7296 47.0877 22.9936 46.929 23.138L40.814 28.7003C40.3585 29.1146 40.1543 29.7378 40.2762 30.3414L41.9028 38.3935C41.945 38.6022 41.7237 38.7647 41.5372 38.6621L34.2107 34.6282C33.6852 34.3389 33.0481 34.3389 32.5226 34.6282L25.1961 38.6621C25.0096 38.7647 24.7883 38.6022 24.8305 38.3936L26.4571 30.3414C26.579 29.7378 26.3748 29.1146 25.9193 28.7003L19.8043 23.138C19.6456 22.9936 19.7305 22.7296 19.9435 22.7047L28.2451 21.7366C28.8469 21.6664 29.3696 21.2899 29.6269 20.7414L33.1403 13.2491Z" stroke="white" stroke-width="1.5"/>
<path d="M32.4613 21.5862C32.8211 20.819 33.9123 20.819 34.2721 21.5862L35.3027 23.784C35.4497 24.0975 35.7484 24.3126 36.0923 24.3527L38.5074 24.6343C39.3597 24.7337 39.6992 25.79 39.0644 26.3674L37.3014 27.971C37.0412 28.2077 36.9244 28.5639 36.9941 28.9087L37.4655 31.2422C37.6341 32.0768 36.7489 32.7269 36.003 32.3162L33.849 31.1302C33.5487 30.9649 33.1847 30.9649 32.8844 31.1302L30.7304 32.3162C29.9844 32.7269 29.0993 32.0769 29.2679 31.2422L29.7393 28.9087C29.8089 28.5639 29.6922 28.2077 29.4319 27.971L27.669 26.3674C27.0342 25.79 27.3737 24.7337 28.226 24.6343L30.6411 24.3527C30.985 24.3126 31.2837 24.0975 31.4307 23.784L32.4613 21.5862Z" fill="white"/>
<path d="M16.0473 36.9462C16.2272 36.5626 16.7728 36.5626 16.9527 36.9462L17.3626 37.8204C17.5831 38.2906 18.0311 38.6132 18.547 38.6734L19.4904 38.7834C19.9166 38.8331 20.0863 39.3612 19.769 39.6499L19.094 40.2639C18.7036 40.619 18.5285 41.1532 18.633 41.6705L18.8156 42.5743C18.8999 42.9916 18.4573 43.3167 18.0843 43.1113L17.2235 42.6373C16.773 42.3893 16.227 42.3893 15.7765 42.6373L14.9157 43.1113C14.5427 43.3167 14.1001 42.9916 14.1844 42.5743L14.367 41.6705C14.4715 41.1532 14.2964 40.619 13.906 40.2639L13.231 39.6499C12.9137 39.3612 13.0834 38.8331 13.5096 38.7834L14.453 38.6734C14.9689 38.6132 15.4169 38.2906 15.6374 37.8204L16.0473 36.9462Z" stroke="white"/>
<path d="M24.8473 46.3229C25.0272 45.9393 25.5728 45.9393 25.7527 46.3229L26.1626 47.1971C26.3831 47.6673 26.8311 47.99 27.3469 48.0501L28.2904 48.1601C28.7166 48.2098 28.8863 48.738 28.5689 49.0267L27.894 49.6406C27.5036 49.9957 27.3285 50.5299 27.433 51.0472L27.6156 51.951C27.6999 52.3683 27.2573 52.6934 26.8843 52.488L26.0235 52.014C25.573 51.766 25.027 51.766 24.5765 52.014L23.7157 52.488C23.3427 52.6934 22.9001 52.3683 22.9844 51.951L23.167 51.0472C23.2715 50.5299 23.0964 49.9957 22.706 49.6406L22.031 49.0267C21.7136 48.738 21.8834 48.2098 22.3096 48.1601L23.253 48.0501C23.7689 47.99 24.2169 47.6673 24.4374 47.1971L24.8473 46.3229Z" stroke="white"/>
<path d="M38.0473 46.3229C38.2272 45.9393 38.7728 45.9393 38.9527 46.3229L39.3626 47.1971C39.5831 47.6673 40.0311 47.99 40.547 48.0501L41.4904 48.1601C41.9166 48.2098 42.0863 48.738 41.769 49.0267L41.094 49.6406C40.7036 49.9957 40.5285 50.5299 40.633 51.0472L40.8156 51.951C40.8999 52.3683 40.4573 52.6934 40.0843 52.488L39.2235 52.014C38.773 51.766 38.227 51.766 37.7765 52.014L36.9157 52.488C36.5427 52.6934 36.1001 52.3683 36.1844 51.951L36.367 51.0472C36.4715 50.5299 36.2964 49.9957 35.906 49.6406L35.231 49.0267C34.9137 48.738 35.0834 48.2098 35.5096 48.1601L36.453 48.0501C36.9689 47.99 37.4169 47.6673 37.6374 47.1971L38.0473 46.3229Z" stroke="white"/>
<path d="M49.0473 36.9462C49.2272 36.5626 49.7728 36.5626 49.9527 36.9462L50.3626 37.8204C50.5831 38.2906 51.0311 38.6132 51.547 38.6734L52.4904 38.7834C52.9166 38.8331 53.0863 39.3612 52.769 39.6499L52.094 40.2639C51.7036 40.619 51.5285 41.1532 51.633 41.6705L51.8156 42.5743C51.8999 42.9916 51.4573 43.3167 51.0843 43.1113L50.2235 42.6373C49.773 42.3893 49.227 42.3893 48.7765 42.6373L47.9157 43.1113C47.5427 43.3167 47.1001 42.9916 47.1844 42.5743L47.367 41.6705C47.4715 41.1532 47.2964 40.619 46.906 40.2639L46.231 39.6499C45.9137 39.3612 46.0834 38.8331 46.5096 38.7834L47.453 38.6734C47.9689 38.6132 48.4169 38.2906 48.6374 37.8204L49.0473 36.9462Z" stroke="white"/>
</svg>
