<svg width="145" height="38" viewBox="0 0 145 38" fill="none" xmlns="http://www.w3.org/2000/svg">
<path d="M1.276 36.584C1.536 36.896 1.848 37 2.264 37H28.472C28.836 37 29.148 36.896 29.46 36.584C29.72 36.324 29.876 36.012 29.876 35.596V27.744C29.876 27.38 29.72 27.068 29.46 26.756C29.148 26.496 28.836 26.34 28.472 26.34H14.068V2.004C14.068 1.64 13.912 1.328 13.652 1.016C13.34 0.755999 13.028 0.599998 12.664 0.599998H2.264C1.848 0.599998 1.536 0.755999 1.276 1.016C0.964 1.328 0.86 1.64 0.86 2.004V35.596C0.86 36.012 0.964 36.324 1.276 36.584ZM37.0593 33.932C40.1273 36.324 44.2873 37.52 49.4873 37.52C54.6873 37.52 58.7953 36.324 61.9153 33.932C64.9833 31.54 66.6473 28.056 66.8553 23.48C66.9073 21.608 66.9593 20.1 66.9593 18.956C66.9593 17.812 66.9073 16.304 66.8553 14.328C66.7513 11.364 65.9193 8.816 64.4633 6.632C63.0073 4.5 60.9793 2.888 58.4313 1.744C55.8313 0.651997 52.8673 0.079998 49.4873 0.079998C46.0553 0.079998 43.0913 0.651997 40.5433 1.744C37.9433 2.888 35.9153 4.5 34.4593 6.632C33.0033 8.816 32.2233 11.364 32.1193 14.328C32.0673 15.316 32.0673 16.876 32.0673 18.956C32.0673 21.036 32.0673 22.544 32.1193 23.48C32.3273 28.056 33.9393 31.54 37.0593 33.932ZM52.2433 26.34C51.5673 27.068 50.6313 27.38 49.4873 27.38C48.2913 27.38 47.3553 27.068 46.6793 26.34C46.0033 25.664 45.6393 24.624 45.6393 23.168C45.5873 22.18 45.5873 20.724 45.5873 18.748C45.5873 16.824 45.5873 15.368 45.6393 14.432C45.6393 13.028 46.0033 11.988 46.7313 11.26C47.4073 10.584 48.3433 10.22 49.4873 10.22C50.6313 10.22 51.5153 10.584 52.2433 11.26C52.9193 11.988 53.2833 13.028 53.3353 14.432C53.3873 16.304 53.4393 17.76 53.4393 18.748C53.4393 19.684 53.3873 21.192 53.3353 23.168C53.2833 24.624 52.9193 25.664 52.2433 26.34ZM75.6011 33.932C78.6171 36.324 82.8291 37.52 88.2371 37.52C91.7731 37.52 94.8411 37 97.5451 35.908C100.249 34.816 102.329 33.204 103.837 31.02C105.345 28.888 106.125 26.288 106.125 23.22V16.46C106.125 16.096 105.969 15.784 105.709 15.472C105.397 15.212 105.085 15.056 104.721 15.056H90.4211C90.0051 15.056 89.6931 15.212 89.4331 15.472C89.1211 15.784 89.0171 16.096 89.0171 16.46V22.232C89.0171 22.648 89.1211 22.96 89.4331 23.22C89.6931 23.532 90.0051 23.636 90.4211 23.636H92.8651V23.688C92.8651 24.988 92.4491 25.924 91.6691 26.496C90.8891 27.12 89.7971 27.38 88.4451 27.38C85.7411 27.38 84.3371 25.924 84.2331 22.96C84.1811 21.972 84.1811 20.464 84.1811 18.488C84.1811 16.512 84.1811 15.056 84.2331 14.12C84.3371 11.52 85.6371 10.22 88.2371 10.22C88.9651 10.22 89.6411 10.376 90.2131 10.636C90.7851 10.948 91.2011 11.26 91.5131 11.624C91.7731 11.988 91.9291 12.196 91.9811 12.248C92.2931 12.664 92.7611 12.82 93.4891 12.82H104.981C105.293 12.82 105.553 12.716 105.761 12.508C105.969 12.3 106.125 11.988 106.125 11.676C106.021 9.596 105.293 7.62 103.837 5.852C102.381 4.084 100.301 2.68 97.5971 1.64C94.8931 0.599998 91.7731 0.079998 88.2371 0.079998C82.9331 0.079998 78.7731 1.276 75.6531 3.616C72.5331 5.956 70.8691 9.388 70.7131 13.86C70.6611 14.848 70.6611 16.408 70.6611 18.592C70.6611 20.776 70.6611 22.284 70.7131 23.22C70.9211 28.004 72.5331 31.54 75.6011 33.932ZM114.805 33.932C117.873 36.324 122.033 37.52 127.233 37.52C132.433 37.52 136.541 36.324 139.661 33.932C142.729 31.54 144.393 28.056 144.601 23.48C144.653 21.608 144.705 20.1 144.705 18.956C144.705 17.812 144.653 16.304 144.601 14.328C144.497 11.364 143.665 8.816 142.209 6.632C140.753 4.5 138.725 2.888 136.177 1.744C133.577 0.651997 130.613 0.079998 127.233 0.079998C123.801 0.079998 120.837 0.651997 118.289 1.744C115.689 2.888 113.661 4.5 112.205 6.632C110.749 8.816 109.969 11.364 109.865 14.328C109.813 15.316 109.813 16.876 109.813 18.956C109.813 21.036 109.813 22.544 109.865 23.48C110.073 28.056 111.685 31.54 114.805 33.932ZM129.989 26.34C129.313 27.068 128.377 27.38 127.233 27.38C126.037 27.38 125.101 27.068 124.425 26.34C123.749 25.664 123.385 24.624 123.385 23.168C123.333 22.18 123.333 20.724 123.333 18.748C123.333 16.824 123.333 15.368 123.385 14.432C123.385 13.028 123.749 11.988 124.477 11.26C125.153 10.584 126.089 10.22 127.233 10.22C128.377 10.22 129.261 10.584 129.989 11.26C130.665 11.988 131.029 13.028 131.081 14.432C131.133 16.304 131.185 17.76 131.185 18.748C131.185 19.684 131.133 21.192 131.081 23.168C131.029 24.624 130.665 25.664 129.989 26.34Z" fill="#374857"/>
</svg>
