<svg width="65" height="65" viewBox="0 0 65 65" fill="none" xmlns="http://www.w3.org/2000/svg">
<rect width="65" height="65" rx="8" fill="#01A9F1"/>
<path d="M24.2417 22.0719L24.2107 22.0906L24.1827 22.1136C21.7019 24.1506 20.3057 26.4703 19.7125 28.891C19.121 31.3049 19.3362 33.7848 20.0198 36.1394C20.8824 39.1106 24.2185 43.4162 32.2699 43.9858L35.8213 47.7775L34.2451 50.5H28.9025L25.5849 45.6895L25.3669 45.3733L25.0052 45.5025L20.4498 47.1294L16.0413 42.7208L17.6727 37.9897L17.8016 37.6158L17.4675 37.4043L12.5 34.2582V28.9231L17.4572 25.9487L17.8012 25.7424L17.6743 25.3619L16.0346 20.4426L19.9591 16.2041L25.2113 17.6813L25.5698 17.7822L25.7691 17.4675L28.9152 12.5H33.9333L37.5968 17.4957L37.8017 17.7752L38.1354 17.6813L43.4002 16.2006L47.3194 20.1198L45.8387 25.3846L45.7317 25.7651L46.0772 25.9571L50.5 28.4142V34.0658L47.9802 35.4657L44.0663 31.2386C44.3193 28.1064 42.3765 24.0897 38.9553 21.6922C35.3966 19.1983 30.2471 18.4495 24.2417 22.0719Z" stroke="white"/>
<path d="M30.3176 35.0478L24.8176 28.975C23.3176 31.4748 24.2289 33.9455 24.8176 35.048C27.1307 39.3799 32.0576 39.1501 34.1376 38.3412L46.0976 50.3012C51.367 50.8559 51.7598 46.9501 51.2976 44.9279L39.511 33.4879C39.927 29.1892 39.3176 27.4749 37.3176 25.4748C34.8364 23.4898 32.3551 23.9675 30.5583 24.3134L30.5176 24.3212L35.8176 30.4748L30.3176 35.0478Z" fill="white" stroke="white"/>
</svg>
