<svg width="25" height="25" viewBox="0 0 25 25" fill="none" xmlns="http://www.w3.org/2000/svg">
<g clip-path="url(#clip0_85_2)">
<path d="M19.7579 15.4868C19.2461 14.9539 18.6287 14.669 17.9744 14.669C17.3254 14.669 16.7028 14.9487 16.1699 15.4816L14.5026 17.1436C14.3654 17.0698 14.2282 17.0012 14.0963 16.9326C13.9063 16.8376 13.7269 16.7479 13.5739 16.6529C12.0121 15.661 10.5927 14.3682 9.23141 12.6956C8.57186 11.8619 8.12864 11.1602 7.80678 10.4479C8.23944 10.0521 8.64045 9.64057 9.03091 9.24484C9.17865 9.0971 9.32639 8.94408 9.47413 8.79634C10.5822 7.68829 10.5822 6.25311 9.47413 5.14506L8.03366 3.7046C7.87009 3.54103 7.70125 3.37218 7.54296 3.20334C7.22637 2.8762 6.89396 2.53851 6.55099 2.22192C6.03918 1.71539 5.42711 1.44629 4.78339 1.44629C4.13966 1.44629 3.51705 1.71539 2.9894 2.22192C2.98413 2.2272 2.98413 2.2272 2.97885 2.23248L1.18487 4.04229C0.509486 4.71767 0.124308 5.54079 0.0398849 6.49582C-0.0867492 8.03654 0.367023 9.47173 0.715267 10.4109C1.57005 12.7167 2.84694 14.8537 4.75173 17.1436C7.0628 19.9032 9.84348 22.0824 13.0199 23.6178C14.2335 24.1929 15.8533 24.8736 17.6631 24.9897C17.7739 24.995 17.89 25.0002 17.9955 25.0002C19.2144 25.0002 20.238 24.5623 21.04 23.6917C21.0453 23.6811 21.0559 23.6759 21.0611 23.6653C21.3355 23.3329 21.6521 23.0321 21.9845 22.7103C22.2114 22.4939 22.4436 22.267 22.6705 22.0296C23.1928 21.4861 23.4672 20.853 23.4672 20.204C23.4672 19.5497 23.1875 18.9218 22.6546 18.3942L19.7579 15.4868ZM21.6468 21.0429C21.6416 21.0429 21.6416 21.0482 21.6468 21.0429C21.4411 21.2645 21.23 21.465 21.0031 21.6866C20.6601 22.0138 20.3119 22.3567 19.9848 22.7419C19.4518 23.3118 18.8239 23.5809 18.0008 23.5809C17.9217 23.5809 17.8373 23.5809 17.7581 23.5756C16.191 23.4753 14.7347 22.8633 13.6425 22.3409C10.656 20.8952 8.03366 18.8426 5.8545 16.2414C4.05524 14.0728 2.85222 12.0677 2.05548 9.91494C1.56477 8.60112 1.38537 7.57749 1.46452 6.61191C1.51728 5.99456 1.75472 5.48275 2.19266 5.04481L3.99192 3.24555C4.25047 3.00283 4.52484 2.87092 4.79394 2.87092C5.12636 2.87092 5.39545 3.07143 5.5643 3.24027C5.56957 3.24555 5.57485 3.25083 5.58013 3.2561C5.90199 3.55686 6.20802 3.86817 6.52988 4.20058C6.69345 4.36943 6.8623 4.53827 7.03114 4.71239L8.47161 6.15286C9.03091 6.71216 9.03091 7.22925 8.47161 7.78855C8.31859 7.94156 8.17085 8.09458 8.01783 8.24232C7.57461 8.69609 7.1525 9.11821 6.69345 9.52977C6.6829 9.54032 6.67235 9.5456 6.66707 9.55615C6.2133 10.0099 6.29772 10.4531 6.3927 10.7539C6.39797 10.7697 6.40325 10.7856 6.40853 10.8014C6.78315 11.7089 7.31079 12.5637 8.11281 13.5821L8.11809 13.5873C9.57438 15.3813 11.1098 16.7796 12.8035 17.8507C13.0199 17.9879 13.2415 18.0987 13.4525 18.2042C13.6425 18.2992 13.8219 18.3889 13.9749 18.4839C13.996 18.4944 14.0171 18.5102 14.0382 18.5208C14.2176 18.6105 14.3865 18.6527 14.5606 18.6527C14.9985 18.6527 15.2729 18.3783 15.3626 18.2886L17.1671 16.4841C17.3465 16.3047 17.6315 16.0884 17.9639 16.0884C18.291 16.0884 18.5601 16.2941 18.7237 16.4735C18.729 16.4788 18.729 16.4788 18.7342 16.4841L21.6416 19.3914C22.185 19.9296 22.185 20.4836 21.6468 21.0429Z" fill="white"/>
<path d="M13.5106 5.94724C14.893 6.17941 16.1488 6.83368 17.1513 7.8362C18.1538 8.83872 18.8028 10.0945 19.0403 11.4769C19.0983 11.8252 19.3991 12.0679 19.742 12.0679C19.7842 12.0679 19.8212 12.0626 19.8634 12.0573C20.2538 11.994 20.5124 11.6247 20.4491 11.2342C20.1641 9.56159 19.3727 8.03671 18.1644 6.82841C16.9561 5.62011 15.4312 4.82864 13.7586 4.54372C13.3681 4.4804 13.004 4.73894 12.9355 5.12412C12.8669 5.5093 13.1201 5.88393 13.5106 5.94724Z" fill="white"/>
<path d="M24.971 11.028C24.5014 8.27374 23.2034 5.76744 21.2089 3.77295C19.2144 1.77846 16.7081 0.480461 13.9538 0.0108597C13.5686 -0.0577338 13.2046 0.206087 13.136 0.591266C13.0726 0.981721 13.3312 1.34579 13.7216 1.41439C16.1805 1.83122 18.4229 2.99731 20.2064 4.77547C21.9898 6.5589 23.1506 8.80138 23.5675 11.2602C23.6255 11.6084 23.9262 11.8511 24.2692 11.8511C24.3114 11.8511 24.3484 11.8459 24.3906 11.8406C24.7758 11.7826 25.0396 11.4132 24.971 11.028Z" fill="white"/>
</g>
<defs>
<clipPath id="clip0_85_2">
<rect width="25" height="25" fill="white"/>
</clipPath>
</defs>
</svg>
