<svg width="65" height="65" viewBox="0 0 65 65" fill="none" xmlns="http://www.w3.org/2000/svg">
<rect width="65" height="65" rx="8" fill="#01A9F1"/>
<g clip-path="url(#clip0_15_81)">
<path d="M33.9991 23.646C36.4164 23.646 38.3034 24.2997 39.6601 25.607C41.0414 26.8897 41.7321 28.8137 41.7321 31.379C41.7321 34.413 40.8317 36.6577 39.0311 38.113C37.2551 39.5683 34.7637 40.296 31.5571 40.296C30.5211 40.296 29.3864 40.148 28.1531 39.852C26.9197 39.556 25.9701 39.2107 25.3041 38.816L26.4881 35.597C27.8941 36.1397 29.4111 36.411 31.0391 36.411C32.6671 36.411 33.8881 36.078 34.7021 35.412C35.5161 34.746 35.9231 33.673 35.9231 32.193C35.9231 30.195 35.4544 28.8753 34.5171 28.234C33.7771 27.716 32.8891 27.457 31.8531 27.457C30.8171 27.457 29.4727 27.5803 27.8201 27.827L26.3401 25.089H26.3031V14.47H39.9561V18.688H30.9281V23.868C31.7174 23.72 32.7411 23.646 33.9991 23.646Z" fill="white"/>
<path d="M19.7061 49.88L16.8861 45.212H19.0101L20.6541 48.26L22.2861 45.212H24.4221L21.5781 49.856V53H19.7061V49.88ZM25.7127 45.212H31.6527V46.544H27.5847V48.332H31.2567V49.664H27.5847V51.668H31.7727V53H25.7127V45.212ZM33.397 45.212H36.901C37.941 45.212 38.693 45.34 39.157 45.596C39.621 45.844 39.853 46.264 39.853 46.856V48.224C39.853 48.68 39.689 49.04 39.361 49.304C39.041 49.56 38.613 49.724 38.077 49.796L40.333 53H38.173L36.133 49.94H35.269V53H33.397V45.212ZM36.877 48.704C37.317 48.704 37.617 48.648 37.777 48.536C37.937 48.416 38.017 48.188 38.017 47.852V47.3C38.017 47.012 37.929 46.816 37.753 46.712C37.585 46.6 37.293 46.544 36.877 46.544H35.269V48.704H36.877ZM44.2926 53.12C43.5486 53.12 42.6286 53.048 41.5326 52.904V51.476C42.8926 51.684 43.8206 51.788 44.3166 51.788C45.3566 51.788 45.8766 51.52 45.8766 50.984V50.48C45.8766 50.224 45.8006 50.028 45.6486 49.892C45.5046 49.756 45.2406 49.688 44.8566 49.688H43.9446C42.2326 49.688 41.3766 49.008 41.3766 47.648V47.072C41.3766 46.392 41.6606 45.892 42.2286 45.572C42.7966 45.252 43.6966 45.092 44.9286 45.092C45.5686 45.092 46.3806 45.144 47.3646 45.248V46.64C46.1566 46.496 45.3246 46.424 44.8686 46.424C44.2366 46.424 43.8126 46.476 43.5966 46.58C43.3646 46.692 43.2486 46.868 43.2486 47.108V47.66C43.2486 48.068 43.5926 48.272 44.2806 48.272H45.2166C46.1046 48.272 46.7486 48.436 47.1486 48.764C47.5486 49.092 47.7486 49.592 47.7486 50.264V50.78C47.7486 51.708 47.4166 52.336 46.7526 52.664C46.4326 52.832 46.0766 52.948 45.6846 53.012C45.3006 53.084 44.8366 53.12 44.2926 53.12Z" fill="white"/>
</g>
<defs>
<clipPath id="clip0_15_81">
<rect width="44" height="44" fill="white" transform="translate(11 11)"/>
</clipPath>
</defs>
</svg>
